<svg width="25" height="25" viewBox="0 0 25 25" fill="none" xmlns="http://www.w3.org/2000/svg">
<path d="M15.9478 19.5843C16.1592 19.7957 16.2779 20.0823 16.2779 20.3812C16.2779 20.6801 16.1592 20.9668 15.9478 21.1781C15.7365 21.3894 15.4498 21.5082 15.151 21.5082C14.8521 21.5082 14.5654 21.3894 14.3541 21.1781L6.85408 13.6781C6.7492 13.5736 6.66598 13.4494 6.6092 13.3126C6.55242 13.1759 6.52319 13.0293 6.52319 12.8812C6.52319 12.7332 6.55242 12.5865 6.6092 12.4498C6.66598 12.3131 6.7492 12.1889 6.85408 12.0843L14.3541 4.58435C14.5654 4.373 14.8521 4.25427 15.151 4.25427C15.4498 4.25427 15.7365 4.373 15.9478 4.58435C16.1592 4.79569 16.2779 5.08234 16.2779 5.38122C16.2779 5.68011 16.1592 5.96675 15.9478 6.1781L9.24564 12.8803L15.9478 19.5843Z" fill="#FF6142"/>
</svg>
