<svg width="24" height="24" viewBox="0 0 24 24" fill="none" xmlns="http://www.w3.org/2000/svg">
<path d="M20.25 6.375H12.375L9.87469 4.5C9.54975 4.25731 9.15525 4.12581 8.74969 4.125H3.75C3.25272 4.125 2.77581 4.32254 2.42417 4.67417C2.07254 5.02581 1.875 5.50272 1.875 6V18.75C1.875 19.2473 2.07254 19.7242 2.42417 20.0758C2.77581 20.4275 3.25272 20.625 3.75 20.625H20.3334C20.8084 20.6245 21.2638 20.4356 21.5997 20.0997C21.9356 19.7638 22.1245 19.3084 22.125 18.8334V8.25C22.125 7.75272 21.9275 7.27581 21.5758 6.92417C21.2242 6.57254 20.7473 6.375 20.25 6.375ZM19.875 18.375H4.125V6.375H8.625L11.325 8.4C11.5197 8.54605 11.7566 8.625 12 8.625H19.875V18.375Z" fill="#FF6142"/>
</svg>
