<svg width="24" height="24" viewBox="0 0 24 24" fill="none" xmlns="http://www.w3.org/2000/svg">
<path d="M18.421 14.2041C18.6323 14.4154 18.751 14.7021 18.751 15.0009C18.751 15.2998 18.6323 15.5865 18.421 15.7978C18.2096 16.0092 17.923 16.1279 17.6241 16.1279C17.3252 16.1279 17.0385 16.0092 16.8272 15.7978L15.75 14.7188V19.5C15.75 19.7984 15.6315 20.0845 15.4205 20.2955C15.2095 20.5065 14.9234 20.625 14.625 20.625C14.3266 20.625 14.0405 20.5065 13.8295 20.2955C13.6185 20.0845 13.5 19.7984 13.5 19.5V14.7188L12.421 15.7988C12.2096 16.0101 11.923 16.1288 11.6241 16.1288C11.3252 16.1288 11.0385 16.0101 10.8272 15.7988C10.6159 15.5874 10.4971 15.3008 10.4971 15.0019C10.4971 14.703 10.6159 14.4163 10.8272 14.205L13.8272 11.205C13.9317 11.1001 14.0559 11.0169 14.1927 10.9601C14.3294 10.9033 14.476 10.8741 14.6241 10.8741C14.7721 10.8741 14.9188 10.9033 15.0555 10.9601C15.1922 11.0169 15.3164 11.1001 15.421 11.205L18.421 14.2041ZM15 3.375C13.443 3.37575 11.9151 3.79762 10.5783 4.59592C9.24143 5.39423 8.1454 6.53925 7.40627 7.90969C6.54547 7.81953 5.67533 7.90559 4.84888 8.16264C4.02242 8.41969 3.25697 8.84233 2.59916 9.40481C1.94135 9.96729 1.40496 10.6578 1.02269 11.4343C0.64042 12.2108 0.420272 13.0571 0.375661 13.9214C0.331051 14.7858 0.462914 15.6502 0.763213 16.4619C1.06351 17.2736 1.52596 18.0157 2.12237 18.6429C2.71878 19.2702 3.43666 19.7694 4.23226 20.1101C5.02786 20.4509 5.88451 20.6261 6.75002 20.625H9.37502C9.67339 20.625 9.95953 20.5065 10.1705 20.2955C10.3815 20.0845 10.5 19.7984 10.5 19.5C10.5 19.2016 10.3815 18.9155 10.1705 18.7045C9.95953 18.4935 9.67339 18.375 9.37502 18.375H6.75002C5.67509 18.3684 4.6452 17.9425 3.87963 17.1879C3.11406 16.4333 2.67329 15.4097 2.65117 14.335C2.62905 13.2602 3.02733 12.2193 3.76121 11.4339C4.49509 10.6484 5.50659 10.1805 6.58033 10.1297C6.44367 10.7437 6.37482 11.3709 6.37502 12C6.37502 12.2984 6.49354 12.5845 6.70452 12.7955C6.9155 13.0065 7.20165 13.125 7.50002 13.125C7.79839 13.125 8.08453 13.0065 8.29551 12.7955C8.50649 12.5845 8.62502 12.2984 8.62502 12C8.62579 11.0778 8.82664 10.1667 9.2137 9.32968C9.60076 8.49264 10.1648 7.74953 10.867 7.15164C11.5691 6.55375 12.3926 6.11532 13.2806 5.86659C14.1687 5.61787 15.1001 5.56477 16.0106 5.71097C16.9212 5.85716 17.7892 6.19917 18.5547 6.71339C19.3202 7.22761 19.9651 7.9018 20.4448 8.68944C20.9244 9.47708 21.2275 10.3594 21.3331 11.2756C21.4387 12.1917 21.3442 13.1198 21.0563 13.9959C21.01 14.1363 20.9919 14.2844 21.0029 14.4317C21.0139 14.5791 21.0538 14.7228 21.1204 14.8548C21.1869 14.9867 21.2788 15.1042 21.3908 15.2006C21.5028 15.2971 21.6326 15.3705 21.773 15.4167C21.9133 15.4629 22.0614 15.4811 22.2088 15.4701C22.3561 15.4591 22.4999 15.4192 22.6318 15.3526C22.7637 15.2861 22.8813 15.1942 22.9777 15.0822C23.0741 14.9702 23.1475 14.8404 23.1938 14.7C23.6196 13.4042 23.7322 12.0259 23.5224 10.6782C23.3126 9.33045 22.7864 8.05162 21.9869 6.94656C21.1874 5.84149 20.1373 4.94166 18.9228 4.32083C17.7083 3.70001 16.364 3.37587 15 3.375Z" fill="#FF6142"/>
</svg>
